#!OML:ASF I:\Actors\actors\Patient Classification 1\Patient 1\Session 1\Subject1.ASF
:FULLY-SPECIFIED
:DEGREES
290
root -0.78984 17.5832 8.68981 5.83186 23.6165 -11.8124
lowerback 7.07593 3.55072 2.78682
upperback -9.80133 5.00199 -2.60258
thorax -14.2997 1.91471 -5.40814
lowerneck -9.63619 -11.3931 -7.51976
upperneck 18.5156 -15.8929 7.13047
head 8.52583 -7.43542 1.82064
rclavicle -1.11121e-013 -1.74931e-014
rhumerus -3.64819 16.311 -34.1323
rradius 141.069
rwrist -12.7729
rhand 2.79875 -60.7472
rfingers 7.12502
rthumb 28.2682 -88.6344
lclavicle -1.11121e-013 -1.74931e-014
lhumerus -41.6195 -19.9527 57.4378
lradius 137.077
lwrist -328.049
lhand -8.81652 -27.2264
lfingers 7.12502
lthumb 17.1231 2.03906
rfemur -0.153164 12.4049 32.595
rtibia 4.12663
rfoot -22.5763 -34.4608
rtoes 14.2578
lfemur -9.21738 -32.3837 0.856093
ltibia 2.96317
lfoot -6.3366 20.6134
ltoes -21.1753
291
root -0.772455 17.5893 8.67412 6.13126 22.7377 -11.618
lowerback 7.00499 3.98927 3.01139
upperback -9.86903 5.59082 -2.95214
thorax -14.2172 2.14959 -6.02181
lowerneck -9.67073 -11.6617 -7.85309
upperneck 18.1958 -16.3069 7.69333
head 8.53732 -7.60719 1.99564
rclavicle 4.59193e-014 2.06736e-014
rhumerus -0.673873 14.4247 -32.1847
rradius 135.857
rwrist -12.5166
rhand 3.37264 -59.4143
rfingers 7.12502
rthumb 28.8166 -87.2095
lclavicle 4.59193e-014 2.06736e-014
lhumerus -40.8498 -20.1489 55.9802
lradius 136.905
lwrist -328.834
lhand -9.49853 -27.336
lfingers 7.12502
lthumb 16.4665 1.98516
rfemur -0.277537 12.8737 32.2192
rtibia 3.95607
rfoot -22.1673 -34.1612
rtoes 13.7049
lfemur -8.94934 -32.5772 0.517377
ltibia 2.83401
lfoot -6.34064 21.6033
ltoes -20.7154
292
root -0.75537 17.5945 8.654 6.40255 21.7408 -11.2952
lowerback 7.02609 4.4391 3.21391
upperback -9.89395 6.19129 -3.31412
thorax -14.1282 2.39257 -6.64193
lowerneck -9.77944 -11.8526 -8.06851
upperneck 17.8273 -16.5991 8.15671
head 8.51915 -7.72197 2.1339
rclavicle -6.61953e-014 4.6118e-014
rhumerus 2.92966 12.7017 -30.7718
rradius 129.235
rwrist -12.3961
rhand 4.26774 -58.9027
rfingers 7.12502
rthumb 29.6713 -86.549
lclavicle -6.61953e-014 4.6118e-014
lhumerus -39.9262 -20.2758 54.3805
lradius 136.786
lwrist -329.857
lhand -9.30058 -27.2827
lfingers 7.12502
lthumb 16.6571 2.02255
rfemur -0.271544 13.3753 31.729
rtibia 3.70829
rfoot -21.6451 -33.8422
rtoes 13.3457
lfemur -8.44387 -32.8552 -0.101848
ltibia 2.56767
lfoot -6.39316 22.7428
ltoes -19.812
293
root -0.737193 17.5995 8.63102 6.63201 20.7018 -11.0172
lowerback 7.05143 4.8534 3.56813
upperback -9.90449 6.7695 -3.63778
thorax -14.0033 2.61506 -7.29547
lowerneck -9.85829 -11.9439 -8.14571
upperneck 17.3745 -16.7267 8.43845
head 8.42514 -7.77089 2.22038
rclavicle -7.51406e-014 1.74931e-014
rhumerus 7.0481 10.7717 -29.769
rradius 120.495
rwrist -14.7238
rhand 5.99655 -58.629
rfingers 7.12502
rthumb 31.32 -85.969
lclavicle -7.51406e-014 1.74931e-014
lhumerus -38.9941 -20.3674 52.8471
lradius 136.61
lwrist -330.333
lhand -8.73488 -27.4149
lfingers 7.12502
lthumb 17.2016 1.84376
rfemur -0.21751 13.8017 31.2718
rtibia 3.39427
rfoot -21.0282 -33.4358
rtoes 12.8311
lfemur -7.82034 -33.0705 -0.754943
ltibia 2.18981
lfoot -6.42888 23.8727
ltoes -18.8929
294
root -0.724262 17.6088 8.59663 6.85493 19.644 -10.9944
lowerback 7.09691 5.2361 4.22687
upperback -9.97089 7.35617 -3.92442
thorax -13.9128 2.81063 -8.08269
lowerneck -9.912 -11.9982 -8.10423
upperneck 16.9851 -16.8105 8.63381
head 8.32617 -7.79934 2.26891
rclavicle 7.7526e-014 9.54166e-015
rhumerus 11.3089 9.21229 -29.3008
rradius 110.506
rwrist -17.0456
rhand 7.92053 -58.0167
rfingers 7.12502
rthumb 33.1515 -84.9849
lclavicle 7.7526e-014 9.54166e-015
lhumerus -37.9282 -20.9451 50.8763
lradius 136.493
lwrist -329.889
lhand -8.54669 -27.5075
lfingers 7.12502
lthumb 17.3827 1.73522
rfemur -0.401478 14.4 31.0582
rtibia 3.21162
rfoot -20.4381 -33.1123
rtoes 12.3304
lfemur -7.45096 -33.0774 -0.966671
ltibia 1.87834
lfoot -6.37132 24.9144
ltoes -18.3124
295
root -0.717342 17.6232 8.5496 6.99953 18.5489 -11.2558
lowerback 7.27069 5.60201 5.21389
upperback -10.1023 7.98184 -4.17854
thorax -13.9207 2.98384 -9.04464
lowerneck -9.9076 -12.0579 -8.15646
upperneck 16.7955 -16.9439 8.99415
head 8.31295 -7.83886 2.37572
rclavicle 5.32743e-014 -3.33958e-014
rhumerus 15.6038 8.59601 -29.002
rradius 98.1091
rwrist -18.5983
rhand 7.95018 -59.4825
rfingers 7.12502
rthumb 33.1797 -86.4446
lclavicle 5.32743e-014 -3.33958e-014
lhumerus -36.598 -22.0735 48.3896
lradius 136.515
lwrist -328.99
lhand -8.73982 -27.2897
lfingers 7.12502
lthumb 17.1969 1.96935
rfemur -0.795539 15.2275 31.1462
rtibia 3.26464
rfoot -19.9415 -32.8872
rtoes 12.0222
lfemur -7.29352 -32.995 -0.73539
ltibia 1.72875
lfoot -6.30373 25.9589
ltoes -18.0003
296
root -0.707544 17.6374 8.50274 7.13351 17.3857 -11.4603
lowerback 7.30729 5.96032 6.1774
upperback -10.1972 8.59306 -4.39873
thorax -13.7846 3.16843 -9.9239
lowerneck -9.89663 -12.0793 -8.26278
upperneck 16.7801 -17.0296 9.34147
head 8.35683 -7.85555 2.48993
rclavicle 6.19214e-014 6.36111e-014
rhumerus 20.8681 8.76914 -28.6234
rradius 82.8424
rwrist -17.5255
rhand 6.81516 -57.3365
rfingers 7.12502
rthumb 32.0997 -84.5224
lclavicle 6.19214e-014 6.36111e-014
lhumerus -35.2423 -23.0035 45.8762
lradius 136.598
lwrist -328.346
lhand -8.9744 -26.9017
lfingers 7.12502
lthumb 16.9711 2.3769
rfemur -1.25387 15.7445 31.1134
rtibia 3.47497
rfoot -19.3453 -32.2996
rtoes 11.5367
lfemur -7.05575 -32.9959 -0.657448
ltibia 1.63584
lfoot -6.36833 27.137
ltoes -17.5237
297
root -0.693794 17.6504 8.45888 7.39275 16.1241 -11.3721
lowerback 7.06406 6.30121 6.80182
upperback -10.2145 9.1144 -4.56876
thorax -13.4302 3.37523 -10.4824
lowerneck -9.95789 -12.0183 -8.27411
upperneck 16.7948 -16.9667 9.46638
head 8.3798 -7.81246 2.53644
rclavicle -5.01931e-014 -3.18055e-015
rhumerus 26.9733 9.49703 -28.2528
rradius 65.2631
rwrist -13.7525
rhand 5.76209 -58.9703
rfingers 7.12502
rthumb 31.0966 -86.3533
lclavicle -5.01931e-014 -3.18055e-015
lhumerus -34.0051 -23.4641 43.7867
lradius 136.429
lwrist -328.094
lhand -9.23439 -26.7812
lfingers 7.12502
lthumb 16.7208 2.51872
rfemur -1.83103 15.9078 30.6772
rtibia 3.82429
rfoot -18.7297 -31.298
rtoes 10.9839
lfemur -6.75842 -33.0686 -0.993843
ltibia 1.54478
lfoot -6.58763 28.4686
ltoes -16.5029
298
root -0.681136 17.6643 8.41506 7.59914 14.6967 -11.229
lowerback 6.83176 6.69707 7.35521
upperback -10.1501 9.6959 -4.70998
thorax -12.9733 3.63605 -10.9546
lowerneck -10.0707 -11.9727 -8.34243
upperneck 16.7692 -16.8966 9.54008
head 8.39784 -7.77311 2.57333
rclavicle 5.52621e-014 -2.8625e-014
rhumerus 33.5128 10.1409 -28.0486
rradius 46.2254
rwrist -6.92409
rhand 5.16838 -54.8017
rfingers 7.12502
rthumb 30.5306 -82.2915
lclavicle 5.52621e-014 -2.8625e-014
lhumerus -32.563 -23.8295 42.1736
lradius 135.789
lwrist -327.976
lhand -9.3835 -26.9569
lfingers 7.12502
lthumb 16.5773 2.35502
rfemur -2.42326 16.0239 30.1818
rtibia 4.32732
rfoot -18.1668 -30.099
rtoes 10.2508
lfemur -6.29469 -32.9514 -1.48224
ltibia 1.42173
lfoot -6.87031 29.7558
ltoes -15.3938
299
root -0.686466 17.689 8.3909 7.24682 13.2789 -11.2017
lowerback 7.02494 7.21576 7.82572
upperback -9.90033 10.4514 -4.84701
thorax -12.5181 3.99577 -11.4328
lowerneck -10.2859 -12.0958 -8.40301
upperneck 16.8133 -17.062 9.59904
head 8.47817 -7.83921 2.56287
rclavicle -7.38485e-014 1.43125e-014
rhumerus 38.4368 10.813 -27.2661
rradius 29.7839
rwrist 1.90782
rhand 5.77969 -54.4064
rfingers 7.12502
rthumb 31.1134 -81.7862
lclavicle -7.38485e-014 1.43125e-014
lhumerus -30.493 -24.4693 40.591
lradius 134.916
lwrist -327.541
lhand -9.44102 -26.8164
lfingers 7.12502
lthumb 16.5219 2.50014
rfemur -2.1662 16.6542 30.1975
rtibia 4.60823
rfoot -17.7915 -29.4511
rtoes 9.47068
lfemur -4.90931 -32.6009 -2.17201
ltibia 0.94882
lfoot -7.05657 30.6874
ltoes -14.7385
300
root -0.68314 17.7059 8.35627 7.10983 11.8693 -11.2617
lowerback 7.33134 7.98287 8.67154
upperback -9.79626 11.5866 -5.30518
thorax -12.0627 4.48992 -12.5385
lowerneck -10.4176 -12.5004 -8.41682
upperneck 16.6953 -17.7265 10.1549
head 8.58409 -8.09996 2.63772
rclavicle 1.46604e-013 -4.77083e-015
rhumerus 38.6355 1.99967 -36.6652
rradius 19.9159
rwrist 25.34
rhand 7.16638 -49.8366
rfingers 7.12502
rthumb 32.434 -76.9545
lclavicle 1.46604e-013 -4.77083e-015
lhumerus -27.5492 -25.5685 38.8914
lradius 134.012
lwrist -326.77
lhand -9.60269 -26.3674
lfingers 7.12502
lthumb 16.3662 2.96211
rfemur -2.36708 16.8074 30.1275
rtibia 5.0578
rfoot -17.2035 -28.3559
rtoes 8.40918
lfemur -4.04558 -32.0017 -2.58448
ltibia 0.705279
lfoot -7.12063 31.458
ltoes -14.247
